<mxfile host="app.diagrams.net" modified="2023-11-06T09:32:22.892Z" agent="Mozilla/5.0 (Windows NT 10.0; Win64; x64) AppleWebKit/537.36 (KHTML, like Gecko) Chrome/119.0.0.0 Safari/537.36 Edg/119.0.0.0" etag="5TXGEmawF0GTQgJo6tRn" version="22.0.8" type="github">
  <diagram name="第 1 页" id="N-xStCdT-EK1j4OjcLbE">
    <mxGraphModel dx="1339" dy="759" grid="1" gridSize="10" guides="1" tooltips="1" connect="1" arrows="1" fold="1" page="1" pageScale="1" pageWidth="827" pageHeight="1169" math="0" shadow="0">
      <root>
        <mxCell id="0" />
        <mxCell id="1" parent="0" />
        <mxCell id="JLq3AE5GQr_ILxxpyP6X-3" value="" style="edgeStyle=orthogonalEdgeStyle;rounded=0;orthogonalLoop=1;jettySize=auto;html=1;" edge="1" parent="1" source="JLq3AE5GQr_ILxxpyP6X-1" target="JLq3AE5GQr_ILxxpyP6X-2">
          <mxGeometry relative="1" as="geometry" />
        </mxCell>
        <mxCell id="JLq3AE5GQr_ILxxpyP6X-1" value="" style="ellipse;whiteSpace=wrap;html=1;" vertex="1" parent="1">
          <mxGeometry x="210" y="30" width="240" height="230" as="geometry" />
        </mxCell>
        <mxCell id="JLq3AE5GQr_ILxxpyP6X-2" value="" style="ellipse;whiteSpace=wrap;html=1;" vertex="1" parent="1">
          <mxGeometry x="210" y="340" width="240" height="230" as="geometry" />
        </mxCell>
      </root>
    </mxGraphModel>
  </diagram>
</mxfile>
